<?xml version="1.0" standalone="no"?>
<!DOCTYPE svg PUBLIC "-//W3C//DTD SVG 20010904//EN"
 "http://www.w3.org/TR/2001/REC-SVG-20010904/DTD/svg10.dtd">
<svg version="1.0" xmlns="http://www.w3.org/2000/svg"
 width="1080.000000pt" height="1080.000000pt" viewBox="0 0 1080.000000 1080.000000"
 preserveAspectRatio="xMidYMid meet">

<g transform="translate(0.000000,1080.000000) scale(0.100000,-0.100000)"
fill="#000000" stroke="none">
<path d="M6030 6995 l0 -94 63 -37 c68 -40 147 -101 147 -114 0 -4 -32 -34
-71 -65 -84 -68 -105 -107 -89 -163 18 -65 63 -102 123 -102 42 0 73 14 161
72 32 21 64 37 70 35 19 -8 103 -188 132 -287 27 -90 29 -105 29 -280 0 -181
-1 -187 -34 -295 -33 -109 -90 -237 -133 -298 -92 -132 -225 -260 -318 -307
-79 -39 -80 -42 -80 -147 0 -51 2 -93 5 -93 14 0 108 51 172 93 74 49 219 172
263 223 105 121 206 302 253 450 31 97 57 264 57 362 0 108 -28 285 -62 391
-31 101 -96 246 -130 294 l-20 27 -46 -33 c-26 -19 -98 -68 -160 -111 -93 -62
-120 -76 -152 -76 -75 0 -136 83 -108 148 13 30 93 101 231 203 37 28 67 55
67 59 0 9 -149 122 -225 171 -52 34 -121 69 -135 69 -6 0 -10 -36 -10 -95z"/>
<path d="M5585 6490 c3 -5 11 -10 16 -10 6 0 7 5 4 10 -3 6 -11 10 -16 10 -6
0 -7 -4 -4 -10z"/>
<path d="M5323 6360 c-98 -21 -186 -92 -232 -189 -23 -49 -26 -69 -26 -151 1
-108 19 -157 85 -233 61 -69 129 -100 230 -105 115 -5 180 19 259 97 79 77
104 143 99 261 -3 64 -10 98 -28 135 -31 65 -98 131 -163 160 -59 27 -161 38
-224 25z m117 -55 c14 0 35 -6 47 -13 12 -7 29 -12 38 -12 20 0 105 -70 105
-86 0 -6 9 -22 19 -36 11 -13 22 -45 26 -71 4 -26 11 -50 16 -53 5 -3 5 -13
-1 -24 -5 -10 -10 -34 -10 -53 0 -19 -7 -40 -15 -47 -8 -7 -15 -19 -15 -28 0
-15 -7 -24 -49 -67 -72 -74 -153 -97 -276 -79 -22 3 -44 12 -50 18 -5 7 -25
20 -42 30 -18 9 -33 23 -33 31 0 8 -11 22 -25 31 -14 9 -25 25 -25 36 0 10 -7
29 -16 42 -27 42 -20 192 11 226 8 9 15 24 15 33 0 9 11 24 25 33 14 9 25 23
25 30 0 8 13 17 30 20 16 4 35 13 41 20 6 8 23 14 38 14 14 0 33 5 41 10 8 5
24 6 35 3 11 -4 31 -7 45 -8z"/>
<path d="M5378 6179 l-3 -74 -19 53 c-10 29 -20 51 -22 49 -5 -4 7 -63 20
-102 6 -16 3 -15 -11 5 -10 13 -28 36 -41 50 l-23 25 22 -40 c11 -22 28 -48
37 -57 27 -31 1 -19 -48 22 -64 53 -75 51 -20 -5 24 -25 42 -45 40 -45 -3 0
-29 9 -59 20 -70 27 -75 20 -9 -11 l52 -24 -60 -5 -59 -6 50 -8 c81 -12 84
-17 25 -36 -59 -19 -51 -24 18 -11 23 5 42 7 42 6 0 -1 -27 -21 -60 -44 -33
-23 -60 -44 -60 -46 0 -2 35 15 77 38 l78 41 -44 -52 c-24 -29 -42 -55 -39
-58 3 -3 18 11 34 31 15 20 35 40 44 45 15 8 14 0 -7 -51 -13 -33 -23 -65 -20
-72 2 -6 15 18 30 54 l26 64 1 -70 c2 -79 18 -64 19 17 1 26 6 50 11 53 6 3
10 -2 10 -12 0 -10 9 -45 20 -78 11 -33 18 -46 15 -30 -2 17 -7 50 -10 75 l-7
45 36 -55 c43 -66 47 -56 7 18 -16 28 -26 52 -23 52 3 0 28 -21 54 -47 61 -60
63 -48 2 17 -51 55 -52 60 -2 31 39 -23 116 -56 106 -46 -4 4 -36 26 -70 47
l-63 40 40 -6 c91 -15 98 -15 50 0 -83 25 -83 27 -5 39 l75 12 -75 2 -75 1 70
34 c84 41 80 45 -12 11 l-68 -26 36 38 c63 68 65 78 6 30 -32 -26 -59 -47 -61
-47 -2 0 12 29 31 65 19 36 32 65 30 65 -2 0 -21 -25 -41 -56 -21 -31 -39 -54
-41 -52 -2 2 3 34 11 72 8 38 13 71 11 73 -2 2 -15 -32 -28 -74 l-23 -78 -8
74 c-4 41 -10 76 -12 79 -3 2 -6 -29 -8 -69z"/>
<path d="M6458 5953 c6 -2 18 -2 25 0 6 3 1 5 -13 5 -14 0 -19 -2 -12 -5z"/>
<path d="M6392 5941 c-11 -7 -10 -9 3 -14 9 -4 13 -3 10 2 -3 5 3 12 12 14 13
3 14 5 3 6 -8 0 -21 -3 -28 -8z"/>
<path d="M6230 5890 c-13 -9 -13 -10 0 -10 8 0 22 5 30 10 13 9 13 10 0 10 -8
0 -22 -5 -30 -10z"/>
<path d="M6436 5875 c-11 -8 -15 -15 -9 -15 6 0 16 7 23 15 16 19 11 19 -14 0z"/>
<path d="M6163 5865 c-38 -16 -41 -21 -13 -21 10 0 17 2 14 5 -2 3 8 10 23 17
16 7 24 13 18 13 -5 0 -25 -6 -42 -14z"/>
<path d="M6058 5833 c7 -3 16 -2 19 1 4 3 -2 6 -13 5 -11 0 -14 -3 -6 -6z"/>
<path d="M6360 5829 c0 -5 5 -7 10 -4 6 3 10 8 10 11 0 2 -4 4 -10 4 -5 0 -10
-5 -10 -11z"/>
<path d="M5985 5810 c-13 -5 -14 -9 -5 -9 8 0 24 4 35 9 13 5 14 9 5 9 -8 0
-24 -4 -35 -9z"/>
<path d="M5845 5765 c-39 -17 -21 -18 25 0 19 7 28 14 20 14 -8 0 -28 -6 -45
-14z"/>
<path d="M5765 5734 c-40 -14 -40 -14 -5 -9 19 3 39 10 44 15 12 12 12 12 -39
-6z"/>
<path d="M5675 5705 c-25 -12 -26 -14 -5 -9 28 7 60 23 45 23 -5 0 -23 -6 -40
-14z"/>
<path d="M6125 5700 c-3 -5 -1 -10 4 -10 6 0 11 5 11 10 0 6 -2 10 -4 10 -3 0
-8 -4 -11 -10z"/>
<path d="M6021 5660 c-9 -5 -10 -10 -2 -14 6 -4 11 -3 11 3 0 6 7 8 15 5 8 -4
15 -4 15 -1 0 10 -27 15 -39 7z"/>
<path d="M5460 5636 c-57 -20 -62 -23 -38 -28 15 -3 25 -2 23 3 -3 4 21 16 52
27 32 11 51 20 43 20 -8 0 -44 -10 -80 -22z"/>
<path d="M5275 5575 c-33 -13 -55 -24 -50 -24 12 -1 115 36 123 44 10 10 -14
4 -73 -20z"/>
<path d="M5915 5576 c-28 -22 -297 -166 -310 -166 -4 0 -3 5 1 12 5 7 3 8 -5
4 -7 -5 -10 -11 -7 -14 7 -6 -82 -54 -102 -55 -10 0 -12 -108 -10 -521 l3
-521 137 1 c152 1 205 14 251 62 56 58 55 52 58 647 1 345 5 555 12 563 14 18
6 14 -28 -12z"/>
<path d="M5308 5553 c7 -3 16 -2 19 1 4 3 -2 6 -13 5 -11 0 -14 -3 -6 -6z"/>
<path d="M5102 5521 c-11 -7 -10 -9 3 -14 9 -4 13 -3 10 2 -3 5 3 12 12 14 13
3 14 5 3 6 -8 0 -21 -3 -28 -8z"/>
<path d="M5037 5489 c7 -7 15 -10 18 -7 3 3 -2 9 -12 12 -14 6 -15 5 -6 -5z"/>
<path d="M4925 5461 c-47 -23 -40 -27 11 -6 19 8 42 11 51 8 11 -4 14 -3 9 5
-10 16 -24 15 -71 -7z"/>
<path d="M5028 5463 c6 -2 18 -2 25 0 6 3 1 5 -13 5 -14 0 -19 -2 -12 -5z"/>
<path d="M5440 5334 c-14 -8 -31 -12 -38 -9 -8 3 -10 0 -6 -7 5 -8 0 -9 -15
-5 -18 4 -20 3 -11 -8 9 -10 6 -15 -10 -20 -12 -4 -19 -9 -16 -12 3 -3 24 6
46 21 22 14 44 26 49 26 5 0 14 7 21 15 15 18 13 18 -20 -1z"/>
<path d="M5314 5263 c-10 -16 -13 -16 -30 -3 -17 14 -18 14 -6 -2 12 -15 9
-19 -23 -32 -21 -9 -41 -13 -46 -10 -5 3 -8 0 -7 -8 2 -8 -4 -12 -16 -10 -12
2 -16 -1 -10 -9 5 -9 2 -10 -9 -6 -10 4 -16 2 -14 -6 1 -7 -5 -12 -13 -12 -8
0 -17 -3 -20 -6 -13 -17 -197 -105 -209 -101 -8 2 -11 0 -7 -6 3 -5 -1 -13
-10 -16 -10 -4 -13 -2 -8 6 4 6 3 8 -4 4 -19 -12 -22 -79 -14 -336 9 -275 12
-288 69 -342 43 -41 76 -49 231 -55 l142 -6 1 439 c2 455 2 464 13 508 7 30 5
33 -10 9z"/>
<path d="M6120 3670 l0 -80 -32 20 c-39 24 -67 25 -113 6 -45 -19 -67 -65 -68
-140 -1 -96 41 -156 110 -156 35 0 83 18 83 32 0 4 5 8 10 8 6 0 10 -9 10 -20
0 -16 7 -20 35 -20 l35 0 0 215 0 215 -35 0 -35 0 0 -80z m-21 -126 c26 -33
28 -109 5 -142 -11 -16 -25 -22 -54 -22 -51 0 -70 26 -70 97 0 40 5 58 20 73
29 29 74 26 99 -6z"/>
<path d="M6292 3738 c-7 -7 -12 -19 -12 -28 0 -40 61 -55 80 -21 13 25 13 27
-6 45 -18 19 -45 21 -62 4z"/>
<path d="M4130 3520 l0 -200 35 0 35 0 0 141 c0 81 4 138 9 135 5 -4 47 -67
93 -141 83 -134 83 -135 121 -135 l37 0 0 200 0 200 -35 0 -35 0 0 -130 c0
-71 -3 -130 -7 -130 -5 0 -44 59 -88 130 l-79 130 -43 0 -43 0 0 -200z"/>
<path d="M5380 3520 l0 -200 40 0 40 0 0 200 0 200 -40 0 -40 0 0 -200z"/>
<path d="M4611 3615 c-57 -26 -63 -33 -45 -61 l16 -23 27 20 c38 28 105 23
109 -8 4 -26 -16 -38 -76 -48 -63 -10 -96 -42 -94 -91 1 -28 8 -45 27 -61 36
-31 95 -31 125 0 l23 23 24 -23 c33 -34 77 -29 81 10 3 22 -1 27 -17 27 -20 0
-21 6 -21 94 0 85 -2 98 -23 122 -29 33 -104 43 -156 19z m109 -177 c0 -40
-25 -68 -61 -68 -61 0 -58 71 4 89 52 15 57 13 57 -21z"/>
<path d="M5690 3623 c-8 -3 -25 -15 -37 -26 l-23 -20 0 21 c0 18 -6 22 -35 22
l-35 0 0 -150 0 -150 35 0 35 0 0 99 c0 84 3 102 21 125 13 17 30 26 49 26 52
0 60 -20 60 -141 l0 -109 35 0 35 0 0 110 c0 126 -14 174 -55 190 -28 11 -61
12 -85 3z"/>
<path d="M6494 3611 c-50 -23 -57 -33 -40 -56 12 -16 14 -16 45 -1 46 24 105
18 109 -11 4 -26 -16 -38 -77 -48 -51 -8 -101 -51 -101 -85 0 -26 18 -61 39
-77 26 -20 85 -15 116 9 26 20 29 20 40 5 15 -20 65 -31 84 -19 16 12 6 52
-14 52 -10 0 -14 25 -17 100 -2 84 -6 103 -24 120 -30 30 -108 36 -160 11z
m116 -173 c0 -39 -25 -68 -60 -68 -68 0 -68 74 1 90 56 13 59 12 59 -22z"/>
<path d="M4906 3474 c30 -80 54 -147 54 -150 0 -2 20 -4 43 -4 l44 0 55 151
56 150 -36 -3 -36 -3 -36 -102 c-19 -56 -38 -105 -42 -108 -5 -6 -60 134 -74
190 -5 21 -12 25 -44 25 l-38 0 54 -146z"/>
<path d="M6290 3470 l0 -150 35 0 35 0 0 150 0 150 -35 0 -35 0 0 -150z"/>
<path d="M5220 3392 c-17 -13 -21 -24 -16 -40 9 -26 50 -39 71 -22 21 18 19
57 -4 70 -25 13 -25 13 -51 -8z"/>
</g>
</svg>
